<svg width="379" height="84" viewBox="0 0 379 84" fill="none" xmlns="http://www.w3.org/2000/svg">
<path d="M377.817 34.2814C377.252 33.3349 376.54 32.4097 375.686 31.5136L374.219 30.2146C373.7 29.7969 373.138 29.3918 372.535 29.0007C370.284 27.5193 367.609 26.1954 364.585 25.0675C362.805 24.0859 360.873 23.1689 358.805 22.324C355.05 20.8199 350.984 19.5001 346.671 18.3848C338.3 16.2915 329.523 14.5881 320.462 13.2983L307.192 11.3014L293.769 9.61402C275.778 7.4985 257.507 5.96341 239.081 5.01925C228.426 4.49118 217.721 4.19377 207.016 4.08451C205.853 3.82886 204.66 3.60592 203.443 3.41684C202.512 3.2651 201.44 3.10122 200.227 2.91913C199.015 2.73703 197.676 2.59743 196.157 2.41534L191.232 1.85693L185.413 1.34707C174.746 0.472845 163.943 0.0241485 153.119 0.00565953C141.306 -0.0489571 129.499 0.291788 117.787 1.02537C101.186 2.11844 84.9121 4.13526 69.3001 7.03439C60.8808 8.56265 52.7384 10.4161 44.9546 12.576C38.0642 14.4817 31.6037 16.719 25.6746 19.2527C22.47 20.6351 19.4846 22.1283 16.7428 23.7201C13.9236 25.3445 11.4209 27.0876 9.26567 28.9279C7.08755 30.7796 5.24757 32.7169 3.76616 34.7184C2.32095 36.7305 1.28271 38.8036 0.665558 40.9095C-0.664211 44.973 0.00450391 49.1278 2.61915 53.0476C5.23381 56.9675 9.72319 60.5456 15.7348 63.501C21.536 66.3478 28.2771 68.7241 35.691 70.5358C42.9465 72.3165 50.5653 73.7401 58.4288 74.7846C64.9297 75.6688 71.5334 76.3721 78.2064 76.8908L79.2399 77.0486C81.6004 77.3885 83.9355 77.783 86.3343 78.0501C91.1064 78.6571 95.8785 79.264 100.663 79.8103C139.212 84.0089 178.98 85.0618 218.27 82.9241C237.887 81.8851 257.272 80.0225 276.199 77.3581C285.641 75.9985 295.019 74.5357 304.181 72.7876L307.639 72.1807C308.787 71.9743 309.935 71.7558 311.058 71.513L317.834 70.0866L324.596 68.6663C326.855 68.1443 329.113 67.6162 331.334 67.0275C335.877 65.8689 340.153 64.4876 344.093 62.9061C346.118 62.0855 347.996 61.1861 349.708 60.2173C350.295 59.8652 350.869 59.501 351.417 59.1308C355.401 57.8992 359.154 56.5061 362.633 54.967C368.514 52.4033 373.102 49.2413 376.056 45.7167C377.524 43.9236 378.46 42.0422 378.838 40.1265C379.239 38.1648 378.894 36.1847 377.817 34.2814V34.2814ZM322.083 21.2375L326.217 21.6017L330.249 22.0205C335.558 22.5841 340.767 23.3431 345.829 24.2906C349.429 24.9602 352.89 25.7893 356.164 26.767C357.083 27.2101 357.963 27.6654 358.792 28.1388C362.265 30.1681 364.784 32.5275 366.18 35.0583C367.705 37.4758 367.614 40.0589 365.921 42.4508C364.227 44.8427 361.014 46.9255 356.725 48.4117C355.757 46.0088 353.532 43.7606 350.256 41.8746C346.888 39.9299 342.896 38.2502 338.428 36.8974C334.135 35.5729 329.594 34.4392 324.864 33.5105C322.529 33.0431 320.156 32.6183 317.77 32.2298C316.571 32.0416 315.371 31.8595 314.159 31.6835L310.612 31.204L303.505 30.2511C302.318 30.0933 301.144 29.9233 299.945 29.7776L296.372 29.3588C253.816 24.2296 209.859 22.2338 166.031 23.4408C160.281 23.5987 154.531 23.801 148.78 24.0478C151.46 23.72 154.178 23.3984 156.883 23.1009C160.953 22.5972 165.036 22.2269 168.928 21.8324L174.632 21.2618L180.016 20.8127C224.257 17.0816 269.515 16.981 313.827 20.5152L322.083 21.2375ZM149.584 28.1267C153.91 27.9628 158.018 27.7564 161.897 27.6472L172.769 27.3679C176.137 27.289 179.225 27.289 182.007 27.2526C184.788 27.2162 187.264 27.1798 189.395 27.198C196.527 27.2344 203.073 27.198 207.922 27.3315C239.294 27.9647 270.421 30.2611 300.723 34.1782L312.207 35.7381C315.896 36.2808 319.517 36.9232 323.053 37.6622C330.045 39.1432 336.744 41.037 341.707 43.5134C344.115 44.6851 346.007 46.074 347.27 47.5983C348.132 48.7044 348.539 49.8789 348.47 51.0581C346.288 51.665 344.029 52.2052 341.733 52.7454C336.323 53.9594 330.951 55.2097 325.49 56.3873L317.247 58.0807C314.491 58.6452 311.747 59.2158 308.94 59.7135C303.352 60.721 297.827 61.8257 292.136 62.718C269.549 66.5186 246.375 69.4794 222.825 71.5737C219.903 71.8711 216.943 72.0896 213.982 72.3081L205.051 72.9819C199.13 73.3946 193.171 73.7042 187.187 74.0684C181.215 74.3051 175.257 74.6025 169.323 74.7907L160.392 75.0152C157.406 75.0941 154.42 75.1791 151.46 75.1852C147.747 75.1852 144.046 75.252 140.333 75.2702C121.182 74.1219 102.289 72.1513 83.8844 69.3825C74.5428 67.8511 65.8148 65.5771 58.0716 62.6573C54.1808 61.1604 50.8874 59.3429 48.3486 57.2917C45.8724 55.2682 44.6441 52.9539 44.8043 50.6137C44.9645 48.2736 46.5068 46.0022 49.2546 44.0597C52.2163 42.0141 55.9815 40.2601 60.3428 38.8943C69.2746 36.0112 79.8524 34.1782 90.2898 32.9035C109.79 30.6406 129.605 29.0442 149.584 28.1267V28.1267ZM343.532 57.061C307.786 66.3886 268.715 72.4825 228.299 75.0334C250.742 73.003 272.835 70.1788 294.394 66.5844L300.047 65.6557L305.635 64.6299C309.349 63.938 313.1 63.2885 316.787 62.5602L327.799 60.3204L330.542 59.756L333.26 59.149L338.67 57.935C340.572 57.5102 342.498 57.0914 344.348 56.6604L343.915 56.9335L343.532 57.061ZM262.929 10.6944C266.54 11.0101 270.163 11.3014 273.749 11.6231L284.493 12.7521C286.279 12.9524 288.091 13.1102 289.864 13.359L295.172 14.0328C298.707 14.4941 302.267 14.919 305.789 15.4045L316.111 16.9584C302.809 15.8355 289.387 15.0634 275.905 14.6458C260.841 14.1624 245.731 14.0793 230.647 14.397C215.578 14.7555 200.56 15.4951 185.656 16.6124C165.937 18.0986 146.584 20.5287 127.893 23.8657C124.524 24.4727 121.513 25.0797 118.961 25.6199L117.06 26.0569C111.701 26.498 106.363 26.9916 101.046 27.5379L93.0204 28.3937C90.3663 28.6729 87.6485 29.0007 84.9562 29.3406C79.5492 30.0464 74.2535 30.9328 69.1087 31.9931C63.8512 33.056 58.8538 34.3892 54.2053 35.9687C49.3573 37.5895 45.1897 39.6276 41.9177 41.9778C38.548 44.4158 36.5935 47.2343 36.2524 50.1476C35.9299 53.064 37.2514 55.9684 40.0803 58.5602C42.8488 61.0495 46.5604 63.2739 51.0282 65.1216C55.3341 66.9133 60.0409 68.4745 65.0639 69.7771C68.9581 70.7946 72.9808 71.6967 77.109 72.4781L76.4838 72.387C74.4806 72.0836 72.4389 71.7801 70.4357 71.4766C68.4324 71.1731 66.4547 70.8211 64.4897 70.4751C60.6618 69.7953 56.8339 69.0669 53.1846 68.2718C46.1162 66.739 39.4274 64.8377 33.2411 62.6027C27.1673 60.4152 22.0085 57.7059 18.0316 54.6149C14.0734 51.5983 11.6526 48.1832 10.9627 44.6424C10.3246 41.1703 11.946 37.6888 15.6072 34.6698C19.0884 31.8576 23.7331 29.4107 29.2601 27.4772C34.9471 25.4661 41.0628 23.7449 47.5065 22.3422C50.773 21.6199 54.1033 20.9401 57.4846 20.3149C60.8659 19.6898 64.3493 19.101 67.7945 18.5244L72.8984 17.6382C74.6209 17.3347 76.3945 17.1101 78.1298 16.837L88.6182 15.2831C102.704 13.3491 117.01 11.7968 131.465 10.6337C138.675 9.97821 145.973 9.60795 153.246 9.1588C154.152 9.10417 155.058 9.0374 155.977 8.99491L158.707 8.88566L164.194 8.66715L169.681 8.44864L172.411 8.33938L175.167 8.28475C204.519 7.51102 233.96 8.31939 262.929 10.6944V10.6944ZM57.4974 13.4622C62.8128 12.1969 68.2693 11.0703 73.8426 10.0875C82.8545 8.43613 92.1089 7.10126 101.531 6.09359C110.899 5.10842 120.384 4.39493 129.934 3.95705C139.417 3.53597 148.943 3.37789 158.465 3.48361C163.212 3.48361 167.933 3.65356 172.654 3.77495L179.697 4.0663C180.501 4.09665 181.292 4.13307 182.096 4.18162L176.648 4.29088C174.338 4.34551 172.016 4.36372 169.719 4.47904L155.887 5.04353C146.701 5.57766 137.501 6.08752 128.403 6.913L121.551 7.47748C119.293 7.68992 117.034 7.93878 114.763 8.16943L107.988 8.87352L104.593 9.22556C103.471 9.3591 102.36 9.50477 101.238 9.64437L87.8145 11.3014L74.5571 13.268L71.2395 13.7657L67.9858 14.3302L61.4529 15.4531L54.9199 16.5821C52.7507 16.9887 50.5816 17.4075 48.4379 17.8506C44.1251 18.7429 39.8762 19.708 35.6782 20.8005C33.5346 21.3711 31.4165 21.9841 29.2984 22.6214C33.3766 20.8077 37.7593 19.1553 42.4026 17.6807C47.2557 16.1181 52.3195 14.7089 57.5612 13.4622H57.4974Z" fill="#D1B0FD"/>
</svg>
