<svg width="289" height="11" viewBox="0 0 289 11" fill="none" xmlns="http://www.w3.org/2000/svg">
<path d="M288.603 2.89845C288.502 2.84788 288.393 2.81373 288.281 2.7974C288.231 2.79385 288.181 2.79385 288.131 2.7974H287.897C287.322 2.76708 286.808 2.76708 286.274 2.76203C284.162 2.76203 282.072 2.76203 279.981 2.76203H276.786C276.811 2.67611 276.828 2.58819 276.837 2.49929C276.651 1.76165 276.355 1.86777 276.277 1.76672C276.127 1.7072 275.97 1.66317 275.81 1.63536L275.447 1.57473C275.219 1.54441 274.996 1.5242 274.773 1.50399C273.014 1.37768 271.307 1.35746 269.585 1.33219L264.444 1.2918H255.511C274.363 0.655196 258.541 0.448023 200.191 0.538966L160.687 0.503626L48.6919 0.427828H20.4143C15.6417 0.427828 10.8587 0.392461 6.0602 0.427828C4.86186 0.427828 3.66353 0.42784 2.42888 0.503626C2.128 0.503626 1.82193 0.503614 1.50548 0.554138C1.34467 0.554138 1.18904 0.554125 0.986721 0.604649C0.857796 0.617796 0.730781 0.644927 0.608028 0.685504C0.571633 0.696389 0.536776 0.711647 0.504274 0.730959C0.438448 0.761985 0.375898 0.79923 0.31752 0.842127C0.212308 0.929361 0.129064 1.03896 0.0742008 1.16247C0.0193376 1.28597 -0.00567661 1.42009 0.00108001 1.5545C0.125582 2.11531 0.519839 2.23153 0.442025 2.20122C0.496067 2.23121 0.553521 2.25495 0.613217 2.27196H0.696217H0.799967C1.13181 2.31781 1.46611 2.34479 1.80117 2.35278L2.709 2.38816C5.11605 2.44373 7.49716 2.44373 9.87827 2.45384H13.1828C13.1574 2.62884 13.194 2.80703 13.2865 2.95908L13.3695 3.09547H12.2334C11.5331 3.09547 10.8328 3.09547 10.1117 3.16115L9.55145 3.20664C9.32502 3.23222 9.10118 3.27617 8.88225 3.33801C8.7741 3.37362 8.6712 3.42287 8.57619 3.48451C8.41778 3.58253 8.29467 3.72621 8.22401 3.89554C8.15335 4.06488 8.13864 4.25145 8.18193 4.42931C8.28568 4.76276 8.38943 4.86887 8.76812 5.07097C8.87784 5.10435 8.99086 5.12637 9.10532 5.13665C9.33876 5.13665 9.49439 5.13665 9.67077 5.13665L24.554 5.27305H24.3257L23.9834 5.31853L23.7603 5.3741C23.5831 5.41603 23.4214 5.50527 23.2934 5.63178C23.214 5.72261 23.1547 5.82839 23.1191 5.94252C23.0835 6.05666 23.0724 6.17672 23.0865 6.29521C23.1006 6.4137 23.1397 6.52808 23.2011 6.63125C23.2626 6.73441 23.3452 6.82415 23.4439 6.89487C23.5272 6.94874 23.6158 6.99445 23.7084 7.0313L24.0664 7.16266C24.4386 7.2606 24.8187 7.32818 25.2024 7.36474H24.8808C24.6059 7.39 24.3361 7.41527 24.0404 7.46074L23.8018 7.50622C23.6504 7.53245 23.5069 7.5911 23.3816 7.67799C23.2312 7.5921 22.8888 8.56215 23.2104 8.65309C23.2916 8.76062 23.3984 8.84732 23.5217 8.90571C23.625 8.95792 23.7349 8.997 23.8485 9.02194C24.407 9.13607 24.9745 9.20366 25.5448 9.22401C27.6925 9.33517 29.7987 9.33013 31.9204 9.33518L38.2596 9.2897L50.9278 9.17856C55.1453 9.17856 59.3784 9.17856 63.6011 9.17856L78.9668 9.23413H78.2509C70.1115 9.35033 63.6893 9.39076 59.2227 9.6838L58.8025 9.71917L58.5795 9.74948H58.5328C58.4877 9.7654 58.4481 9.79341 58.4187 9.83031C58.3936 9.88466 58.3871 9.94545 58.4001 10.0037C58.4132 10.0619 58.4452 10.1145 58.4913 10.1537L58.5535 10.1789H58.5795C59.1876 10.2959 59.8064 10.3517 60.4263 10.3457C63.1498 10.3052 66.4491 10.3457 70.1582 10.3457L82.3698 10.3861L137.613 10.4669L214.669 10.5629L233.941 10.5882C240.369 10.5882 246.801 10.5427 253.229 10.5275L262.878 10.4871H267.702C268.102 10.4871 268.501 10.4871 268.911 10.4871H269.528H269.86C270.085 10.4574 270.304 10.3925 270.509 10.2951C271.37 9.63831 271.271 9.40085 270.934 9.28464C273.798 9.32001 276.697 9.3756 279.675 9.33518C280.422 9.33518 281.174 9.2998 281.942 9.25433C282.326 9.22907 282.71 9.2038 283.109 9.15833L283.716 9.07245C283.939 9.02698 284.162 8.98151 284.385 8.92088C284.524 8.87813 284.659 8.82579 284.79 8.76426C284.947 8.69834 285.084 8.59587 285.19 8.46591C285.296 8.33595 285.368 8.18249 285.399 8.01914C285.429 7.85579 285.418 7.68758 285.367 7.52938C285.315 7.37118 285.224 7.22786 285.101 7.11212C285.023 7.03802 284.932 6.97815 284.832 6.9353L284.998 6.89487L285.252 6.82413L285.381 6.78876L285.584 6.69782C285.688 6.60183 285.76 6.69785 286.103 6.21787C286.162 6.09579 286.196 5.96326 286.202 5.82818C286.208 5.6931 286.187 5.55822 286.138 5.43149C286.09 5.30475 286.016 5.18877 285.921 5.0904C285.825 4.99202 285.711 4.91326 285.584 4.85878L285.449 4.81329C286.051 4.77287 286.658 4.7173 287.285 4.62636C287.565 4.57583 287.835 4.55564 288.126 4.47985L288.375 4.41417C288.427 4.41417 288.484 4.37878 288.582 4.33331C288.577 4.71224 289.511 3.31275 288.603 2.89845ZM287.851 2.86308C287.835 2.83277 287.83 2.82266 287.851 2.86308V2.86308Z" fill="#D1B0FD"/>
</svg>
